<mxfile host="app.diagrams.net" modified="2024-07-20T01:40:24.537Z" agent="Mozilla/5.0 (Windows NT 10.0; Win64; x64) AppleWebKit/537.36 (KHTML, like Gecko) Chrome/126.0.0.0 Safari/537.36" version="24.7.2" etag="4zEz9alOqFfoDPU7dg7K" type="github">
  <diagram name="Trang-1" id="_8kM_dGw7qv06beScT9k">
    <mxGraphModel>
      <root>
        <mxCell id="0" />
        <mxCell id="1" parent="0" />
      </root>
    </mxGraphModel>
  </diagram>
</mxfile>
